<?xml version="1.0" encoding="UTF-8" standalone="no"?>
<!DOCTYPE svg PUBLIC "-//W3C//DTD SVG 1.1//EN"
 "http://www.w3.org/Graphics/SVG/1.1/DTD/svg11.dtd">
<!-- Generated by graphviz version 2.26.3 (20100126.1600)
 -->
<!-- Title: controllers_diagram Pages: 1 -->
<svg width="3299pt" height="2257pt"
 viewBox="0.00 0.00 3299.36 2257.05" xmlns="http://www.w3.org/2000/svg" xmlns:xlink="http://www.w3.org/1999/xlink">
<g id="graph1" class="graph" transform="scale(1 1) rotate(0) translate(4 2253.05)">
<title>controllers_diagram</title>
<polygon fill="white" stroke="white" points="-4,5 -4,-2253.05 3296.36,-2253.05 3296.36,5 -4,5"/>
<!-- _diagram_info -->
<g id="node1" class="node"><title>_diagram_info</title>
<text text-anchor="start" x="2609" y="-78.3" font-family="Times Roman,serif" font-size="13.00">Controllers diagram</text>
<text text-anchor="start" x="2609" y="-61.3" font-family="Times Roman,serif" font-size="13.00">Date: Nov 14 2013 &#45; 22:12</text>
<text text-anchor="start" x="2609" y="-44.3" font-family="Times Roman,serif" font-size="13.00">Migration version: 104</text>
<text text-anchor="start" x="2609" y="-27.3" font-family="Times Roman,serif" font-size="13.00">Generated by RailRoady 1.1.1</text>
<text text-anchor="start" x="2609" y="-10.3" font-family="Times Roman,serif" font-size="13.00">http://railroady.prestonlee.com</text>
</g>
<!-- AccountsController -->
<g id="node2" class="node"><title>AccountsController</title>
<ellipse fill="none" stroke="black" cx="1504" cy="-699.763" rx="104.151" ry="18.3848"/>
<text text-anchor="middle" x="1504" y="-696.163" font-family="Times Roman,serif" font-size="14.00">AccountsController</text>
</g>
<!-- FeedbackController -->
<g id="node3" class="node"><title>FeedbackController</title>
<ellipse fill="none" stroke="black" cx="2412.43" cy="-724.969" rx="104.86" ry="18.3848"/>
<text text-anchor="middle" x="2412.43" y="-721.369" font-family="Times Roman,serif" font-size="14.00">FeedbackController</text>
</g>
<!-- TrackbacksController -->
<g id="node6" class="node"><title>TrackbacksController</title>
<ellipse fill="none" stroke="black" cx="3046.83" cy="-276.145" rx="113.137" ry="18.3848"/>
<text text-anchor="middle" x="3046.83" y="-272.545" font-family="Times Roman,serif" font-size="14.00">TrackbacksController</text>
</g>
<!-- FeedbackController&#45;&gt;TrackbacksController -->
<g id="edge10" class="edge"><title>FeedbackController&#45;&gt;TrackbacksController</title>
<path fill="none" stroke="black" d="M2438.09,-706.818C2540.43,-634.413 2918.91,-366.643 3021.2,-294.275"/>
</g>
<!-- CommentsController -->
<g id="node9" class="node"><title>CommentsController</title>
<ellipse fill="none" stroke="black" cx="2219.9" cy="-219.5" rx="111.93" ry="18.3848"/>
<text text-anchor="middle" x="2219.9" y="-215.9" font-family="Times Roman,serif" font-size="14.00">CommentsController</text>
</g>
<!-- FeedbackController&#45;&gt;CommentsController -->
<g id="edge16" class="edge"><title>FeedbackController&#45;&gt;CommentsController</title>
<path fill="none" stroke="black" d="M2405.35,-706.379C2375.13,-627.03 2257.09,-317.149 2226.94,-237.991"/>
</g>
<!-- ContentController -->
<g id="node4" class="node"><title>ContentController</title>
<ellipse fill="none" stroke="black" cx="1188.62" cy="-788.797" rx="99.9096" ry="18.3848"/>
<text text-anchor="middle" x="1188.62" y="-785.197" font-family="Times Roman,serif" font-size="14.00">ContentController</text>
</g>
<!-- ArticlesController -->
<g id="node5" class="node"><title>ArticlesController</title>
<ellipse fill="none" stroke="black" cx="117.008" cy="-2100.46" rx="96.8736" ry="18.3848"/>
<text text-anchor="middle" x="117.008" y="-2096.86" font-family="Times Roman,serif" font-size="14.00">ArticlesController</text>
</g>
<!-- ContentController&#45;&gt;ArticlesController -->
<g id="edge8" class="edge"><title>ContentController&#45;&gt;ArticlesController</title>
<path fill="none" stroke="black" d="M1175.87,-807.397C1136.87,-864.048 1015.19,-1039.05 905.829,-1177.64 609.462,-1553.24 218.457,-1988.32 133.673,-2082.08"/>
</g>
<!-- GroupingController -->
<g id="node8" class="node"><title>GroupingController</title>
<ellipse fill="none" stroke="black" cx="760.428" cy="-738.576" rx="104.86" ry="18.3848"/>
<text text-anchor="middle" x="760.428" y="-734.976" font-family="Times Roman,serif" font-size="14.00">GroupingController</text>
</g>
<!-- ContentController&#45;&gt;GroupingController -->
<g id="edge14" class="edge"><title>ContentController&#45;&gt;GroupingController</title>
<path fill="none" stroke="black" d="M1104.03,-778.875C1030.05,-770.199 923.046,-757.649 848.159,-748.866"/>
</g>
<!-- ThemeController -->
<g id="node31" class="node"><title>ThemeController</title>
<ellipse fill="none" stroke="black" cx="1609.96" cy="-219.534" rx="94.0452" ry="18.3848"/>
<text text-anchor="middle" x="1609.96" y="-215.934" font-family="Times Roman,serif" font-size="14.00">ThemeController</text>
</g>
<!-- ContentController&#45;&gt;ThemeController -->
<g id="edge58" class="edge"><title>ContentController&#45;&gt;ThemeController</title>
<path fill="none" stroke="black" d="M1202.4,-770.181C1266.22,-683.952 1532.69,-323.936 1596.29,-238.009"/>
</g>
<!-- AuthorsController -->
<g id="node32" class="node"><title>AuthorsController</title>
<ellipse fill="none" stroke="black" cx="123.751" cy="-1456.54" rx="98.9949" ry="18.3848"/>
<text text-anchor="middle" x="123.751" y="-1452.94" font-family="Times Roman,serif" font-size="14.00">AuthorsController</text>
</g>
<!-- ContentController&#45;&gt;AuthorsController -->
<g id="edge60" class="edge"><title>ContentController&#45;&gt;AuthorsController</title>
<path fill="none" stroke="black" d="M1160.14,-806.658C1009.15,-901.337 303.526,-1343.81 152.322,-1438.62"/>
</g>
<!-- BackendController -->
<g id="node33" class="node"><title>BackendController</title>
<ellipse fill="none" stroke="black" cx="1013.67" cy="-232.165" rx="101.116" ry="18.3848"/>
<text text-anchor="middle" x="1013.67" y="-228.565" font-family="Times Roman,serif" font-size="14.00">BackendController</text>
</g>
<!-- ContentController&#45;&gt;BackendController -->
<g id="edge62" class="edge"><title>ContentController&#45;&gt;BackendController</title>
<path fill="none" stroke="black" d="M1182.8,-770.277C1156.18,-685.577 1046.18,-335.599 1019.51,-250.754"/>
</g>
<!-- TagsController -->
<g id="node7" class="node"><title>TagsController</title>
<ellipse fill="none" stroke="black" cx="83" cy="-911.73" rx="82.0244" ry="18.3848"/>
<text text-anchor="middle" x="83" y="-908.13" font-family="Times Roman,serif" font-size="14.00">TagsController</text>
</g>
<!-- GroupingController&#45;&gt;TagsController -->
<g id="edge12" class="edge"><title>GroupingController&#45;&gt;TagsController</title>
<path fill="none" stroke="black" d="M700.608,-753.866C570.303,-787.173 262.493,-865.851 137.339,-897.841"/>
</g>
<!-- CategoriesController -->
<g id="node34" class="node"><title>CategoriesController</title>
<ellipse fill="none" stroke="black" cx="178.052" cy="-275.23" rx="111.93" ry="18.3848"/>
<text text-anchor="middle" x="178.052" y="-271.63" font-family="Times Roman,serif" font-size="14.00">CategoriesController</text>
</g>
<!-- GroupingController&#45;&gt;CategoriesController -->
<g id="edge64" class="edge"><title>GroupingController&#45;&gt;CategoriesController</title>
<path fill="none" stroke="black" d="M737.598,-720.412C644.541,-646.375 294.387,-367.787 201.04,-293.519"/>
</g>
<!-- Admin::PostTypesController -->
<g id="node10" class="node"><title>Admin::PostTypesController</title>
<ellipse fill="none" stroke="black" cx="1526.14" cy="-1329.86" rx="145.163" ry="18.3848"/>
<text text-anchor="middle" x="1526.14" y="-1326.26" font-family="Times Roman,serif" font-size="14.00">Admin::PostTypesController</text>
</g>
<!-- Admin::CacheController -->
<g id="node11" class="node"><title>Admin::CacheController</title>
<ellipse fill="none" stroke="black" cx="2470.1" cy="-1626.48" rx="126.78" ry="18.3848"/>
<text text-anchor="middle" x="2470.1" y="-1622.88" font-family="Times Roman,serif" font-size="14.00">Admin::CacheController</text>
</g>
<!-- Admin::FeedbackController -->
<g id="node12" class="node"><title>Admin::FeedbackController</title>
<ellipse fill="none" stroke="black" cx="2038.96" cy="-1046.25" rx="142.836" ry="18.3848"/>
<text text-anchor="middle" x="2038.96" y="-1042.65" font-family="Times Roman,serif" font-size="14.00">Admin::FeedbackController</text>
</g>
<!-- Admin::ContentController -->
<g id="node13" class="node"><title>Admin::ContentController</title>
<ellipse fill="none" stroke="black" cx="784.072" cy="-1617.38" rx="137.179" ry="18.3848"/>
<text text-anchor="middle" x="784.072" y="-1613.78" font-family="Times Roman,serif" font-size="14.00">Admin::ContentController</text>
</g>
<!-- Admin::DashboardController -->
<g id="node14" class="node"><title>Admin::DashboardController</title>
<ellipse fill="none" stroke="black" cx="3140.36" cy="-1467.27" rx="149.907" ry="18.3848"/>
<text text-anchor="middle" x="3140.36" y="-1463.67" font-family="Times Roman,serif" font-size="14.00">Admin::DashboardController</text>
</g>
<!-- Admin::SettingsController -->
<g id="node15" class="node"><title>Admin::SettingsController</title>
<ellipse fill="none" stroke="black" cx="3092.6" cy="-2118.97" rx="137.886" ry="18.3848"/>
<text text-anchor="middle" x="3092.6" y="-2115.37" font-family="Times Roman,serif" font-size="14.00">Admin::SettingsController</text>
</g>
<!-- Admin::RedirectsController -->
<g id="node16" class="node"><title>Admin::RedirectsController</title>
<ellipse fill="none" stroke="black" cx="1914.46" cy="-2182.22" rx="142.128" ry="18.3848"/>
<text text-anchor="middle" x="1914.46" y="-2178.62" font-family="Times Roman,serif" font-size="14.00">Admin::RedirectsController</text>
</g>
<!-- Admin::TagsController -->
<g id="node17" class="node"><title>Admin::TagsController</title>
<ellipse fill="none" stroke="black" cx="2106.55" cy="-1422.86" rx="118.794" ry="18.3848"/>
<text text-anchor="middle" x="2106.55" y="-1419.26" font-family="Times Roman,serif" font-size="14.00">Admin::TagsController</text>
</g>
<!-- Admin::SeoController -->
<g id="node18" class="node"><title>Admin::SeoController</title>
<ellipse fill="none" stroke="black" cx="3133.56" cy="-898.924" rx="115.966" ry="18.3848"/>
<text text-anchor="middle" x="3133.56" y="-895.324" font-family="Times Roman,serif" font-size="14.00">Admin::SeoController</text>
</g>
<!-- Admin::ResourcesController -->
<g id="node19" class="node"><title>Admin::ResourcesController</title>
<ellipse fill="none" stroke="black" cx="1223.41" cy="-1901.93" rx="145.872" ry="18.3848"/>
<text text-anchor="middle" x="1223.41" y="-1898.33" font-family="Times Roman,serif" font-size="14.00">Admin::ResourcesController</text>
</g>
<!-- Admin::ProfilesController -->
<g id="node20" class="node"><title>Admin::ProfilesController</title>
<ellipse fill="none" stroke="black" cx="848.083" cy="-2195.37" rx="132.936" ry="18.3848"/>
<text text-anchor="middle" x="848.083" y="-2191.77" font-family="Times Roman,serif" font-size="14.00">Admin::ProfilesController</text>
</g>
<!-- Admin::BaseController -->
<g id="node21" class="node"><title>Admin::BaseController</title>
<ellipse fill="none" stroke="black" cx="1803.26" cy="-1330.01" rx="120.915" ry="18.3848"/>
<text text-anchor="middle" x="1803.26" y="-1326.41" font-family="Times Roman,serif" font-size="14.00">Admin::BaseController</text>
</g>
<!-- Admin::BaseController&#45;&gt;Admin::PostTypesController -->
<g id="edge18" class="edge"><title>Admin::BaseController&#45;&gt;Admin::PostTypesController</title>
<path fill="none" stroke="black" d="M1682.11,-1329.94C1678.47,-1329.94 1674.82,-1329.94 1671.15,-1329.94"/>
</g>
<!-- Admin::BaseController&#45;&gt;Admin::CacheController -->
<g id="edge20" class="edge"><title>Admin::BaseController&#45;&gt;Admin::CacheController</title>
<path fill="none" stroke="black" d="M1836.58,-1347.82C1872.94,-1367.04 1933.03,-1398.18 1985.95,-1422.7 2145.85,-1496.81 2340.23,-1575.15 2425.92,-1609.11"/>
</g>
<!-- Admin::BaseController&#45;&gt;Admin::FeedbackController -->
<g id="edge22" class="edge"><title>Admin::BaseController&#45;&gt;Admin::FeedbackController</title>
<path fill="none" stroke="black" d="M1818.72,-1311.39C1861.43,-1259.98 1980.66,-1116.44 2023.44,-1064.94"/>
</g>
<!-- Admin::BaseController&#45;&gt;Admin::ContentController -->
<g id="edge24" class="edge"><title>Admin::BaseController&#45;&gt;Admin::ContentController</title>
<path fill="none" stroke="black" d="M1755.3,-1347.1C1666.58,-1378.4 1470.5,-1446.07 1302.35,-1493.52 1145.42,-1537.8 958.914,-1579.82 857.939,-1601.7"/>
</g>
<!-- Admin::BaseController&#45;&gt;Admin::DashboardController -->
<g id="edge26" class="edge"><title>Admin::BaseController&#45;&gt;Admin::DashboardController</title>
<path fill="none" stroke="black" d="M1903.76,-1340.33C2147.15,-1365.31 2767.12,-1428.96 3025.05,-1455.43"/>
</g>
<!-- Admin::BaseController&#45;&gt;Admin::SettingsController -->
<g id="edge28" class="edge"><title>Admin::BaseController&#45;&gt;Admin::SettingsController</title>
<path fill="none" stroke="black" d="M1832.61,-1347.97C2005.51,-1453.77 2889.47,-1994.68 3063.01,-2100.87"/>
</g>
<!-- Admin::BaseController&#45;&gt;Admin::RedirectsController -->
<g id="edge30" class="edge"><title>Admin::BaseController&#45;&gt;Admin::RedirectsController</title>
<path fill="none" stroke="black" d="M1800,-1348.8C1790.79,-1404.53 1766.26,-1573.68 1781.61,-1713.03 1801.5,-1893.53 1881.33,-2100.95 1906.69,-2163.45"/>
</g>
<!-- Admin::BaseController&#45;&gt;Admin::TagsController -->
<g id="edge32" class="edge"><title>Admin::BaseController&#45;&gt;Admin::TagsController</title>
<path fill="none" stroke="black" d="M1857.48,-1346.61C1912.6,-1363.49 1997.5,-1389.48 2052.54,-1406.33"/>
</g>
<!-- Admin::BaseController&#45;&gt;Admin::SeoController -->
<g id="edge34" class="edge"><title>Admin::BaseController&#45;&gt;Admin::SeoController</title>
<path fill="none" stroke="black" d="M1855,-1313.24C2067.29,-1244.45 2870.26,-984.247 3082.08,-915.608"/>
</g>
<!-- Admin::BaseController&#45;&gt;Admin::ResourcesController -->
<g id="edge36" class="edge"><title>Admin::BaseController&#45;&gt;Admin::ResourcesController</title>
<path fill="none" stroke="black" d="M1779.6,-1348.26C1716,-1397.82 1537.27,-1540.34 1405.68,-1676.85 1336.76,-1748.34 1265.69,-1843.49 1236.82,-1883.24"/>
</g>
<!-- Admin::BaseController&#45;&gt;Admin::ProfilesController -->
<g id="edge38" class="edge"><title>Admin::BaseController&#45;&gt;Admin::ProfilesController</title>
<path fill="none" stroke="black" d="M1775.56,-1348.1C1674.98,-1414.52 1322.08,-1653.97 1075.81,-1901.81 982.157,-1996.07 891.768,-2128.71 860.033,-2176.93"/>
</g>
<!-- Admin::ThemesController -->
<g id="node22" class="node"><title>Admin::ThemesController</title>
<ellipse fill="none" stroke="black" cx="1543.27" cy="-1677.03" rx="135.765" ry="18.3848"/>
<text text-anchor="middle" x="1543.27" y="-1673.43" font-family="Times Roman,serif" font-size="14.00">Admin::ThemesController</text>
</g>
<!-- Admin::BaseController&#45;&gt;Admin::ThemesController -->
<g id="edge42" class="edge"><title>Admin::BaseController&#45;&gt;Admin::ThemesController</title>
<path fill="none" stroke="black" d="M1789.28,-1348.67C1744.14,-1408.92 1602.56,-1597.89 1557.32,-1658.28"/>
</g>
<!-- Admin::SidebarController -->
<g id="node23" class="node"><title>Admin::SidebarController</title>
<ellipse fill="none" stroke="black" cx="1206.82" cy="-1479.26" rx="133.851" ry="18.3848"/>
<text text-anchor="middle" x="1206.82" y="-1475.66" font-family="Times Roman,serif" font-size="14.00">Admin::SidebarController</text>
</g>
<!-- Admin::BaseController&#45;&gt;Admin::SidebarController -->
<g id="edge44" class="edge"><title>Admin::BaseController&#45;&gt;Admin::SidebarController</title>
<path fill="none" stroke="black" d="M1739.99,-1345.84C1625.92,-1374.39 1386.93,-1434.19 1271.69,-1463.02"/>
</g>
<!-- Admin::UsersController -->
<g id="node24" class="node"><title>Admin::UsersController</title>
<ellipse fill="none" stroke="black" cx="1907.21" cy="-1713.08" rx="123.951" ry="18.3848"/>
<text text-anchor="middle" x="1907.21" y="-1709.48" font-family="Times Roman,serif" font-size="14.00">Admin::UsersController</text>
</g>
<!-- Admin::BaseController&#45;&gt;Admin::UsersController -->
<g id="edge46" class="edge"><title>Admin::BaseController&#45;&gt;Admin::UsersController</title>
<path fill="none" stroke="black" d="M1808.34,-1348.75C1825.99,-1413.79 1884.5,-1629.4 1902.14,-1694.38"/>
</g>
<!-- Admin::TextfiltersController -->
<g id="node25" class="node"><title>Admin::TextfiltersController</title>
<ellipse fill="none" stroke="black" cx="2374" cy="-2159.57" rx="145.163" ry="18.3848"/>
<text text-anchor="middle" x="2374" y="-2155.97" font-family="Times Roman,serif" font-size="14.00">Admin::TextfiltersController</text>
</g>
<!-- Admin::BaseController&#45;&gt;Admin::TextfiltersController -->
<g id="edge48" class="edge"><title>Admin::BaseController&#45;&gt;Admin::TextfiltersController</title>
<path fill="none" stroke="black" d="M1815.98,-1348.5C1891.97,-1458.95 2285.17,-2030.46 2361.25,-2141.03"/>
</g>
<!-- Admin::PagesController -->
<g id="node26" class="node"><title>Admin::PagesController</title>
<ellipse fill="none" stroke="black" cx="1484.41" cy="-2229.55" rx="125.865" ry="18.3848"/>
<text text-anchor="middle" x="1484.41" y="-2225.95" font-family="Times Roman,serif" font-size="14.00">Admin::PagesController</text>
</g>
<!-- Admin::BaseController&#45;&gt;Admin::PagesController -->
<g id="edge50" class="edge"><title>Admin::BaseController&#45;&gt;Admin::PagesController</title>
<path fill="none" stroke="black" d="M1796.64,-1348.84C1778.31,-1401.01 1725.24,-1551.89 1680.87,-1677.21 1606.64,-1886.84 1516,-2141 1491.04,-2210.96"/>
</g>
<!-- Admin::CategoriesController -->
<g id="node27" class="node"><title>Admin::CategoriesController</title>
<ellipse fill="none" stroke="black" cx="2481.08" cy="-1166.39" rx="149.907" ry="18.3848"/>
<text text-anchor="middle" x="2481.08" y="-1162.79" font-family="Times Roman,serif" font-size="14.00">Admin::CategoriesController</text>
</g>
<!-- Admin::BaseController&#45;&gt;Admin::CategoriesController -->
<g id="edge52" class="edge"><title>Admin::BaseController&#45;&gt;Admin::CategoriesController</title>
<path fill="none" stroke="black" d="M1868.25,-1314.32C1996.65,-1283.33 2281.72,-1214.51 2412.77,-1182.88"/>
</g>
<!-- ApplicationController -->
<g id="node28" class="node"><title>ApplicationController</title>
<ellipse fill="none" stroke="black" cx="1665.17" cy="-1022.82" rx="113.844" ry="18.3848"/>
<text text-anchor="middle" x="1665.17" y="-1019.22" font-family="Times Roman,serif" font-size="14.00">ApplicationController</text>
</g>
<!-- ApplicationController&#45;&gt;AccountsController -->
<g id="edge2" class="edge"><title>ApplicationController&#45;&gt;AccountsController</title>
<path fill="none" stroke="black" d="M1655.81,-1004.05C1627.33,-946.956 1541.91,-775.747 1513.39,-718.58"/>
</g>
<!-- ApplicationController&#45;&gt;FeedbackController -->
<g id="edge4" class="edge"><title>ApplicationController&#45;&gt;FeedbackController</title>
<path fill="none" stroke="black" d="M1708.31,-1005.63C1840.4,-952.976 2238.36,-794.352 2369.79,-741.965"/>
</g>
<!-- ApplicationController&#45;&gt;ContentController -->
<g id="edge6" class="edge"><title>ApplicationController&#45;&gt;ContentController</title>
<path fill="none" stroke="black" d="M1629.36,-1005.23C1540.72,-961.7 1311.93,-849.352 1223.88,-806.113"/>
</g>
<!-- ApplicationController&#45;&gt;Admin::BaseController -->
<g id="edge40" class="edge"><title>ApplicationController&#45;&gt;Admin::BaseController</title>
<path fill="none" stroke="black" d="M1673.6,-1041.57C1698.31,-1096.54 1770.37,-1256.85 1794.94,-1311.5"/>
</g>
<!-- TextfilterController -->
<g id="node29" class="node"><title>TextfilterController</title>
<ellipse fill="none" stroke="black" cx="1293.48" cy="-1122.23" rx="103.945" ry="18.3848"/>
<text text-anchor="middle" x="1293.48" y="-1118.63" font-family="Times Roman,serif" font-size="14.00">TextfilterController</text>
</g>
<!-- ApplicationController&#45;&gt;TextfilterController -->
<g id="edge54" class="edge"><title>ApplicationController&#45;&gt;TextfilterController</title>
<path fill="none" stroke="black" d="M1605.87,-1038.68C1535.98,-1057.37 1420.61,-1088.23 1351.35,-1106.75"/>
</g>
<!-- SetupController -->
<g id="node30" class="node"><title>SetupController</title>
<ellipse fill="none" stroke="black" cx="1900.54" cy="-680.865" rx="89.0955" ry="18.3848"/>
<text text-anchor="middle" x="1900.54" y="-677.265" font-family="Times Roman,serif" font-size="14.00">SetupController</text>
</g>
<!-- ApplicationController&#45;&gt;SetupController -->
<g id="edge56" class="edge"><title>ApplicationController&#45;&gt;SetupController</title>
<path fill="none" stroke="black" d="M1678.16,-1003.95C1719.41,-944.021 1847.1,-758.517 1887.88,-699.261"/>
</g>
<!-- XmlController -->
<g id="node35" class="node"><title>XmlController</title>
<ellipse fill="none" stroke="black" cx="824.23" cy="-1177.53" rx="79.9031" ry="18.3848"/>
<text text-anchor="middle" x="824.23" y="-1173.93" font-family="Times Roman,serif" font-size="14.00">XmlController</text>
</g>
<!-- ApplicationController&#45;&gt;XmlController -->
<g id="edge66" class="edge"><title>ApplicationController&#45;&gt;XmlController</title>
<path fill="none" stroke="black" d="M1589.43,-1036.75C1425.12,-1066.98 1038.51,-1138.11 886.845,-1166.01"/>
</g>
</g>
</svg>
