<?xml version="1.0" encoding="UTF-8" standalone="no"?>
<!DOCTYPE svg PUBLIC "-//W3C//DTD SVG 1.1//EN"
 "http://www.w3.org/Graphics/SVG/1.1/DTD/svg11.dtd">
<!-- Generated by graphviz version 2.26.3 (20100126.1600)
 -->
<!-- Title: models_diagram Pages: 1 -->
<svg width="2669pt" height="590pt"
 viewBox="0.00 0.00 2669.00 590.00" xmlns="http://www.w3.org/2000/svg" xmlns:xlink="http://www.w3.org/1999/xlink">
<g id="graph1" class="graph" transform="scale(1 1) rotate(0) translate(4 586)">
<title>models_diagram</title>
<polygon fill="white" stroke="white" points="-4,5 -4,-586 2666,-586 2666,5 -4,5"/>
<!-- _diagram_info -->
<g id="node1" class="node"><title>_diagram_info</title>
<text text-anchor="start" x="479" y="-565.8" font-family="Times Roman,serif" font-size="13.00">Models diagram</text>
<text text-anchor="start" x="479" y="-548.8" font-family="Times Roman,serif" font-size="13.00">Date: Nov 14 2013 &#45; 22:12</text>
<text text-anchor="start" x="479" y="-531.8" font-family="Times Roman,serif" font-size="13.00">Migration version: 104</text>
<text text-anchor="start" x="479" y="-514.8" font-family="Times Roman,serif" font-size="13.00">Generated by RailRoady 1.1.1</text>
<text text-anchor="start" x="479" y="-497.8" font-family="Times Roman,serif" font-size="13.00">http://railroady.prestonlee.com</text>
</g>
<!-- Redirection -->
<g id="node2" class="node"><title>Redirection</title>
<ellipse fill="none" stroke="black" cx="132" cy="-263" rx="65.9683" ry="18.3848"/>
<text text-anchor="middle" x="132" y="-259.4" font-family="Times Roman,serif" font-size="14.00">Redirection</text>
</g>
<!-- ConfigManager -->
<g id="node3" class="node"><title>ConfigManager</title>
<polygon fill="none" stroke="black" stroke-dasharray="1,5" points="1171,-553 1051,-553 1051,-517 1171,-517 1171,-553"/>
<text text-anchor="middle" x="1111" y="-531.4" font-family="Times Roman,serif" font-size="14.00">ConfigManager</text>
</g>
<!-- Category -->
<g id="node4" class="node"><title>Category</title>
<ellipse fill="none" stroke="black" cx="990" cy="-263" rx="56.0679" ry="18.3848"/>
<text text-anchor="middle" x="990" y="-259.4" font-family="Times Roman,serif" font-size="14.00">Category</text>
</g>
<!-- Category&#45;&gt;Category -->
<g id="edge4" class="edge"><title>Category&#45;&gt;Category</title>
<path fill="none" stroke="#550d34" d="M1049.92,-269.381C1058.35,-268.341 1064,-266.215 1064,-263 1064,-260.078 1059.33,-258.054 1052.15,-256.93"/>
<ellipse fill="none" stroke="#550d34" cx="1045.86" cy="-269.7" rx="4" ry="4"/>
<polygon fill="#550d34" stroke="#550d34" points="1051.83,-256.9 1042.28,-251.505 1046.85,-256.443 1041.87,-255.986 1041.87,-255.986 1041.87,-255.986 1046.85,-256.443 1041.46,-260.467 1051.83,-256.9 1051.83,-256.9"/>
<text text-anchor="middle" x="1091.5" y="-259.4" font-family="Times Roman,serif" font-size="14.00">children</text>
</g>
<!-- Article -->
<g id="node10" class="node"><title>Article</title>
<ellipse fill="none" stroke="black" cx="684" cy="-187" rx="43.1335" ry="18.3848"/>
<text text-anchor="middle" x="684" y="-183.4" font-family="Times Roman,serif" font-size="14.00">Article</text>
</g>
<!-- Category&#45;&gt;Article -->
<g id="edge8" class="edge"><title>Category&#45;&gt;Article</title>
<path fill="none" stroke="#7dd35b" d="M935.219,-249.394C877.067,-234.951 786.124,-212.364 731.085,-198.694"/>
<polygon fill="#7dd35b" stroke="#7dd35b" points="935.472,-249.457 944.093,-256.235 940.325,-250.662 945.177,-251.868 945.177,-251.868 945.177,-251.868 940.325,-250.662 946.262,-247.5 935.472,-249.457 935.472,-249.457"/>
<polygon fill="#7dd35b" stroke="#7dd35b" points="730.946,-198.66 722.326,-191.882 726.094,-197.455 721.241,-196.249 721.241,-196.249 721.241,-196.249 726.094,-197.455 720.157,-200.617 730.946,-198.66 730.946,-198.66"/>
</g>
<!-- Categorization -->
<g id="node31" class="node"><title>Categorization</title>
<ellipse fill="none" stroke="black" cx="1204" cy="-95" rx="84.1457" ry="18.3848"/>
<text text-anchor="middle" x="1204" y="-91.4" font-family="Times Roman,serif" font-size="14.00">Categorization</text>
</g>
<!-- Category&#45;&gt;Categorization -->
<g id="edge6" class="edge"><title>Category&#45;&gt;Categorization</title>
<path fill="none" stroke="#02f80e" d="M1018.39,-240.713C1058.49,-209.232 1131.45,-151.955 1172.95,-119.377"/>
<ellipse fill="none" stroke="#02f80e" cx="1015.24" cy="-243.184" rx="4.00002" ry="4.00002"/>
<polygon fill="#02f80e" stroke="#02f80e" points="1173.19,-119.186 1183.84,-116.551 1177.12,-116.099 1181.06,-113.011 1181.06,-113.011 1181.06,-113.011 1177.12,-116.099 1178.28,-109.472 1173.19,-119.186 1173.19,-119.186"/>
</g>
<!-- Ping -->
<g id="node5" class="node"><title>Ping</title>
<ellipse fill="none" stroke="black" cx="1069" cy="-95" rx="33.234" ry="18.3848"/>
<text text-anchor="middle" x="1069" y="-91.4" font-family="Times Roman,serif" font-size="14.00">Ping</text>
</g>
<!-- Sidebar -->
<g id="node6" class="node"><title>Sidebar</title>
<ellipse fill="none" stroke="black" cx="700" cy="-431" rx="48.0833" ry="18.3848"/>
<text text-anchor="middle" x="700" y="-427.4" font-family="Times Roman,serif" font-size="14.00">Sidebar</text>
</g>
<!-- EmailNotifier -->
<g id="node7" class="node"><title>EmailNotifier</title>
<polygon fill="none" stroke="black" points="1494,-449 1390,-449 1390,-413 1494,-413 1494,-449"/>
<text text-anchor="middle" x="1442" y="-427.4" font-family="Times Roman,serif" font-size="14.00">EmailNotifier</text>
</g>
<!-- Page -->
<g id="node8" class="node"><title>Page</title>
<ellipse fill="none" stroke="black" cx="289" cy="-263" rx="34.8574" ry="18.3848"/>
<text text-anchor="middle" x="289" y="-259.4" font-family="Times Roman,serif" font-size="14.00">Page</text>
</g>
<!-- Right -->
<g id="node9" class="node"><title>Right</title>
<ellipse fill="none" stroke="black" cx="803" cy="-431" rx="36.977" ry="18.3848"/>
<text text-anchor="middle" x="803" y="-427.4" font-family="Times Roman,serif" font-size="14.00">Right</text>
</g>
<!-- Profile -->
<g id="node21" class="node"><title>Profile</title>
<ellipse fill="none" stroke="black" cx="845" cy="-355" rx="41.9273" ry="18.3848"/>
<text text-anchor="middle" x="845" y="-351.4" font-family="Times Roman,serif" font-size="14.00">Profile</text>
</g>
<!-- Right&#45;&gt;Profile -->
<g id="edge20" class="edge"><title>Right&#45;&gt;Profile</title>
<path fill="none" stroke="#79673a" d="M817.914,-404.013C821.803,-396.976 825.997,-389.387 829.895,-382.332"/>
<polygon fill="#79673a" stroke="#79673a" points="817.79,-404.237 809.015,-410.812 815.372,-408.613 812.953,-412.989 812.953,-412.989 812.953,-412.989 815.372,-408.613 816.892,-415.166 817.79,-404.237 817.79,-404.237"/>
<polygon fill="#79673a" stroke="#79673a" points="830.136,-381.897 838.911,-375.322 832.554,-377.521 834.972,-373.145 834.972,-373.145 834.972,-373.145 832.554,-377.521 831.034,-370.968 830.136,-381.897 830.136,-381.897"/>
</g>
<!-- Article&#45;&gt;Ping -->
<g id="edge26" class="edge"><title>Article&#45;&gt;Ping</title>
<path fill="none" stroke="#2aaf85" d="M729.37,-175.54C776.752,-163.781 853.32,-145.365 920,-132 967.283,-122.523 980.87,-128.055 1027,-114 1029.57,-113.218 1032.18,-112.315 1034.79,-111.336"/>
<ellipse fill="none" stroke="#2aaf85" cx="725.328" cy="-176.546" rx="4.00001" ry="4.00001"/>
<polygon fill="#2aaf85" stroke="#2aaf85" points="1034.83,-111.318 1045.79,-111.704 1039.46,-109.428 1044.09,-107.538 1044.09,-107.538 1044.09,-107.538 1039.46,-109.428 1042.39,-103.372 1034.83,-111.318 1034.83,-111.318"/>
</g>
<!-- Comment -->
<g id="node17" class="node"><title>Comment</title>
<ellipse fill="none" stroke="black" cx="449" cy="-19" rx="58.1882" ry="18.3848"/>
<text text-anchor="middle" x="449" y="-15.4" font-family="Times Roman,serif" font-size="14.00">Comment</text>
</g>
<!-- Article&#45;&gt;Comment -->
<g id="edge36" class="edge"><title>Article&#45;&gt;Comment</title>
<path fill="none" stroke="#bebbcf" d="M634.831,-180.269C567.3,-169.883 451.406,-147.573 427,-114 412.584,-94.1689 421.519,-66.3728 431.998,-45.9698"/>
<ellipse fill="none" stroke="#bebbcf" cx="638.862" cy="-180.878" rx="4.00001" ry="4.00001"/>
<polygon fill="#bebbcf" stroke="#bebbcf" points="432.02,-45.9305 440.786,-39.3416 434.432,-41.5507 436.844,-37.1709 436.844,-37.1709 436.844,-37.1709 434.432,-41.5507 432.902,-35.0001 432.02,-45.9305 432.02,-45.9305"/>
</g>
<!-- Article&#45;&gt;Comment -->
<g id="edge38" class="edge"><title>Article&#45;&gt;Comment</title>
<path fill="none" stroke="#e8b475" d="M638.944,-175.291C576.401,-158.617 469.603,-128.454 458,-114 443.252,-95.6274 442.112,-68.3508 444.012,-47.7325"/>
<ellipse fill="none" stroke="#e8b475" cx="642.849" cy="-176.328" rx="4.00001" ry="4.00001"/>
<polygon fill="#e8b475" stroke="#e8b475" points="444.032,-47.5681 449.695,-38.1776 444.629,-42.6039 445.227,-37.6397 445.227,-37.6397 445.227,-37.6397 444.629,-42.6039 440.759,-37.1019 444.032,-47.5681 444.032,-47.5681"/>
<text text-anchor="middle" x="530" y="-91.4" font-family="Times Roman,serif" font-size="14.00">published_comments</text>
</g>
<!-- Trackback -->
<g id="node19" class="node"><title>Trackback</title>
<ellipse fill="none" stroke="black" cx="751" cy="-19" rx="58.8978" ry="18.3848"/>
<text text-anchor="middle" x="751" y="-15.4" font-family="Times Roman,serif" font-size="14.00">Trackback</text>
</g>
<!-- Article&#45;&gt;Trackback -->
<g id="edge28" class="edge"><title>Article&#45;&gt;Trackback</title>
<path fill="none" stroke="#23c099" d="M723.779,-170.601C732.15,-165.276 739.962,-158.488 745,-150 763.548,-118.752 761.3,-75.5462 756.977,-47.4402"/>
<ellipse fill="none" stroke="#23c099" cx="720.123" cy="-172.726" rx="4.00002" ry="4.00002"/>
<polygon fill="#23c099" stroke="#23c099" points="756.956,-47.3188 759.693,-36.6999 756.107,-42.3915 755.258,-37.4641 755.258,-37.4641 755.258,-37.4641 756.107,-42.3915 750.823,-38.2283 756.956,-47.3188 756.956,-47.3188"/>
</g>
<!-- Article&#45;&gt;Trackback -->
<g id="edge40" class="edge"><title>Article&#45;&gt;Trackback</title>
<path fill="none" stroke="#436b0f" d="M728.702,-174.549C741.713,-168.951 754.866,-161.038 764,-150 790.756,-117.666 784.122,-96.4682 773,-56 772.109,-52.7572 770.851,-49.5112 769.383,-46.3634"/>
<ellipse fill="none" stroke="#436b0f" cx="724.805" cy="-176.102" rx="4.00001" ry="4.00001"/>
<polygon fill="#436b0f" stroke="#436b0f" points="769.251,-46.1179 768.467,-35.1801 766.879,-41.7166 764.506,-37.3153 764.506,-37.3153 764.506,-37.3153 766.879,-41.7166 760.545,-39.4506 769.251,-46.1179 769.251,-46.1179"/>
<text text-anchor="middle" x="856.5" y="-91.4" font-family="Times Roman,serif" font-size="14.00">published_trackbacks</text>
</g>
<!-- Trigger -->
<g id="node22" class="node"><title>Trigger</title>
<ellipse fill="none" stroke="black" cx="330" cy="-95" rx="44.7575" ry="18.3848"/>
<text text-anchor="middle" x="330" y="-91.4" font-family="Times Roman,serif" font-size="14.00">Trigger</text>
</g>
<!-- Article&#45;&gt;Trigger -->
<g id="edge24" class="edge"><title>Article&#45;&gt;Trigger</title>
<path fill="none" stroke="#36c616" d="M633.221,-184.181C561.314,-179.579 433.897,-169.004 392,-150 376.775,-143.094 362.599,-131.127 351.656,-120.116"/>
<ellipse fill="none" stroke="#36c616" cx="637.287" cy="-184.436" rx="4" ry="4"/>
<polygon fill="#36c616" stroke="#36c616" points="351.513,-119.967 347.884,-109.619 348.068,-116.343 344.623,-112.72 344.623,-112.72 344.623,-112.72 348.068,-116.343 341.362,-115.821 351.513,-119.967 351.513,-119.967"/>
</g>
<!-- Resource -->
<g id="node24" class="node"><title>Resource</title>
<ellipse fill="none" stroke="black" cx="1362" cy="-95" rx="55.8614" ry="18.3848"/>
<text text-anchor="middle" x="1362" y="-91.4" font-family="Times Roman,serif" font-size="14.00">Resource</text>
</g>
<!-- Article&#45;&gt;Resource -->
<g id="edge32" class="edge"><title>Article&#45;&gt;Resource</title>
<path fill="none" stroke="#f57585" d="M735.015,-183.797C840.717,-176.533 1090.99,-156.073 1297,-114 1301.79,-113.022 1306.73,-111.861 1311.66,-110.602"/>
<ellipse fill="none" stroke="#f57585" cx="730.74" cy="-184.088" rx="4" ry="4"/>
<polygon fill="#f57585" stroke="#f57585" points="1312.03,-110.502 1322.86,-112.253 1316.86,-109.205 1321.69,-107.907 1321.69,-107.907 1321.69,-107.907 1316.86,-109.205 1320.52,-103.561 1312.03,-110.502 1312.03,-110.502"/>
</g>
<!-- Tag -->
<g id="node25" class="node"><title>Tag</title>
<ellipse fill="none" stroke="black" cx="990" cy="-95" rx="27.7881" ry="18.3848"/>
<text text-anchor="middle" x="990" y="-91.4" font-family="Times Roman,serif" font-size="14.00">Tag</text>
</g>
<!-- Article&#45;&gt;Tag -->
<g id="edge44" class="edge"><title>Article&#45;&gt;Tag</title>
<path fill="none" stroke="#d49cd2" d="M731.412,-175.268C753.401,-169.042 779.571,-160.493 802,-150 815.4,-143.731 816.161,-137.23 830,-132 879.625,-113.244 897.135,-129.074 948,-114 951.403,-112.992 954.887,-111.763 958.322,-110.419"/>
<polygon fill="#d49cd2" stroke="#d49cd2" points="731.273,-175.306 720.437,-173.625 726.453,-176.635 721.633,-177.964 721.633,-177.964 721.633,-177.964 726.453,-176.635 722.828,-182.302 731.273,-175.306 731.273,-175.306"/>
<polygon fill="#d49cd2" stroke="#d49cd2" points="958.557,-110.32 969.52,-110.565 963.161,-108.37 967.765,-106.421 967.765,-106.421 967.765,-106.421 963.161,-108.37 966.01,-102.277 958.557,-110.32 958.557,-110.32"/>
</g>
<!-- Feedback -->
<g id="node27" class="node"><title>Feedback</title>
<ellipse fill="none" stroke="black" cx="667" cy="-95" rx="56.0679" ry="18.3848"/>
<text text-anchor="middle" x="667" y="-91.4" font-family="Times Roman,serif" font-size="14.00">Feedback</text>
</g>
<!-- Article&#45;&gt;Feedback -->
<g id="edge30" class="edge"><title>Article&#45;&gt;Feedback</title>
<path fill="none" stroke="#194a1f" d="M634.459,-178.906C617.823,-173.567 600.976,-164.706 591,-150 580.058,-133.87 595.954,-120.802 615.987,-111.457"/>
<ellipse fill="none" stroke="#194a1f" cx="638.735" cy="-180.143" rx="4.00001" ry="4.00001"/>
<polygon fill="#194a1f" stroke="#194a1f" points="616.208,-111.363 627.172,-111.565 620.805,-109.396 625.401,-107.428 625.401,-107.428 625.401,-107.428 620.805,-109.396 623.631,-103.291 616.208,-111.363 616.208,-111.363"/>
</g>
<!-- Article&#45;&gt;Feedback -->
<g id="edge42" class="edge"><title>Article&#45;&gt;Feedback</title>
<path fill="none" stroke="#29602f" d="M639.629,-173.987C628.36,-168.459 617.589,-160.726 611,-150 603.144,-137.211 612.414,-125.246 625.527,-115.763"/>
<ellipse fill="none" stroke="#29602f" cx="643.416" cy="-175.678" rx="4.00002" ry="4.00002"/>
<polygon fill="#29602f" stroke="#29602f" points="625.693,-115.655 636.528,-113.964 629.881,-112.925 634.07,-110.194 634.07,-110.194 634.07,-110.194 629.881,-112.925 631.613,-106.425 625.693,-115.655 625.693,-115.655"/>
<text text-anchor="middle" x="678" y="-137.4" font-family="Times Roman,serif" font-size="14.00">published_feedback</text>
</g>
<!-- Article&#45;&gt;Categorization -->
<g id="edge34" class="edge"><title>Article&#45;&gt;Categorization</title>
<path fill="none" stroke="#af3aa7" d="M732.094,-178.814C774.889,-171.472 839.166,-160.298 895,-150 936.402,-142.364 946.494,-139.05 988,-132 1042.47,-122.748 1056.58,-123.533 1111,-114 1118.34,-112.715 1125.98,-111.291 1133.6,-109.818"/>
<ellipse fill="none" stroke="#af3aa7" cx="728.038" cy="-179.509" rx="4.00001" ry="4.00001"/>
<polygon fill="#af3aa7" stroke="#af3aa7" points="1133.75,-109.788 1144.43,-112.276 1138.66,-108.824 1143.56,-107.861 1143.56,-107.861 1143.56,-107.861 1138.66,-108.824 1142.69,-103.445 1133.75,-109.788 1133.75,-109.788"/>
</g>
<!-- Blog -->
<g id="node11" class="node"><title>Blog</title>
<ellipse fill="none" stroke="black" cx="929" cy="-431" rx="33.234" ry="18.3848"/>
<text text-anchor="middle" x="929" y="-427.4" font-family="Times Roman,serif" font-size="14.00">Blog</text>
</g>
<!-- Notification -->
<g id="node12" class="node"><title>Notification</title>
<ellipse fill="none" stroke="black" cx="226" cy="-187" rx="67.1751" ry="18.3848"/>
<text text-anchor="middle" x="226" y="-183.4" font-family="Times Roman,serif" font-size="14.00">Notification</text>
</g>
<!-- Redirect -->
<g id="node13" class="node"><title>Redirect</title>
<ellipse fill="none" stroke="black" cx="309" cy="-431" rx="51.1176" ry="18.3848"/>
<text text-anchor="middle" x="309" y="-427.4" font-family="Times Roman,serif" font-size="14.00">Redirect</text>
</g>
<!-- Redirect&#45;&gt;Redirection -->
<g id="edge52" class="edge"><title>Redirect&#45;&gt;Redirection</title>
<path fill="none" stroke="#b7c3ac" d="M284.062,-408.051C259.476,-385.348 220.915,-349.524 188,-318 177.905,-308.331 166.908,-297.581 157.354,-288.167"/>
<ellipse fill="none" stroke="#b7c3ac" cx="287.059" cy="-410.818" rx="4.00002" ry="4.00002"/>
<polygon fill="#b7c3ac" stroke="#b7c3ac" points="157.161,-287.977 153.208,-277.749 153.604,-284.464 150.046,-280.951 150.046,-280.951 150.046,-280.951 153.604,-284.464 146.884,-284.153 157.161,-287.977 157.161,-287.977"/>
</g>
<!-- Content -->
<g id="node26" class="node"><title>Content</title>
<ellipse fill="none" stroke="black" cx="309" cy="-355" rx="51.1176" ry="18.3848"/>
<text text-anchor="middle" x="309" y="-351.4" font-family="Times Roman,serif" font-size="14.00">Content</text>
</g>
<!-- Redirect&#45;&gt;Content -->
<g id="edge54" class="edge"><title>Redirect&#45;&gt;Content</title>
<path fill="none" stroke="#c31949" d="M309,-401.938C309,-395.986 309,-389.725 309,-383.783"/>
<polygon fill="#c31949" stroke="#c31949" points="309,-402.213 304.5,-412.213 309,-407.213 309,-412.213 309,-412.213 309,-412.213 309,-407.213 313.5,-412.214 309,-402.213 309,-402.213"/>
<polygon fill="#c31949" stroke="#c31949" points="309,-383.57 313.5,-373.57 309,-378.57 309,-373.57 309,-373.57 309,-373.57 309,-378.57 304.5,-373.57 309,-383.57 309,-383.57"/>
</g>
<!-- PageCache -->
<g id="node14" class="node"><title>PageCache</title>
<polygon fill="none" stroke="black" points="1720,-449 1628,-449 1628,-413 1720,-413 1720,-449"/>
<text text-anchor="middle" x="1674" y="-427.4" font-family="Times Roman,serif" font-size="14.00">PageCache</text>
</g>
<!-- TextFilter -->
<g id="node15" class="node"><title>TextFilter</title>
<ellipse fill="none" stroke="black" cx="1075" cy="-431" rx="56.7776" ry="18.3848"/>
<text text-anchor="middle" x="1075" y="-427.4" font-family="Times Roman,serif" font-size="14.00">TextFilter</text>
</g>
<!-- Feedback::States -->
<g id="node16" class="node"><title>Feedback::States</title>
<polygon fill="none" stroke="black" stroke-dasharray="1,5" points="1917,-553 1783,-553 1783,-517 1917,-517 1917,-553"/>
<text text-anchor="middle" x="1850" y="-531.4" font-family="Times Roman,serif" font-size="14.00">Feedback::States</text>
</g>
<!-- Article::States -->
<g id="node18" class="node"><title>Article::States</title>
<polygon fill="none" stroke="black" stroke-dasharray="1,5" points="2049,-553 1935,-553 1935,-517 2049,-517 2049,-553"/>
<text text-anchor="middle" x="1992" y="-531.4" font-family="Times Roman,serif" font-size="14.00">Article::States</text>
</g>
<!-- PostType -->
<g id="node20" class="node"><title>PostType</title>
<ellipse fill="none" stroke="black" cx="1204" cy="-431" rx="53.9477" ry="18.3848"/>
<text text-anchor="middle" x="1204" y="-427.4" font-family="Times Roman,serif" font-size="14.00">PostType</text>
</g>
<!-- Theme -->
<g id="node23" class="node"><title>Theme</title>
<polygon fill="none" stroke="black" points="1802,-449 1738,-449 1738,-413 1802,-413 1802,-449"/>
<text text-anchor="middle" x="1770" y="-427.4" font-family="Times Roman,serif" font-size="14.00">Theme</text>
</g>
<!-- Content&#45;&gt;Redirection -->
<g id="edge82" class="edge"><title>Content&#45;&gt;Redirection</title>
<path fill="none" stroke="#5c0fad" d="M263.492,-339.595C247.507,-333.582 229.642,-326.165 214,-318 208.814,-315.293 185.846,-299.836 165.532,-285.995"/>
<ellipse fill="none" stroke="#5c0fad" cx="267.418" cy="-341.045" rx="4.00001" ry="4.00001"/>
<polygon fill="#5c0fad" stroke="#5c0fad" points="165.308,-285.842 159.586,-276.488 161.178,-283.023 157.049,-280.204 157.049,-280.204 157.049,-280.204 161.178,-283.023 154.512,-283.921 165.308,-285.842 165.308,-285.842"/>
</g>
<!-- Content&#45;&gt;Page -->
<g id="edge18" class="edge"><title>Content&#45;&gt;Page</title>
<path fill="none" stroke="black" d="M282.274,-338.776C275.356,-333.134 268.792,-326.143 265,-318 259.107,-305.345 265.959,-290.869 273.828,-279.945"/>
</g>
<!-- Content&#45;&gt;Article -->
<g id="edge46" class="edge"><title>Content&#45;&gt;Article</title>
<path fill="none" stroke="black" d="M358.984,-351.003C419.744,-345.518 518.23,-334.431 551,-318 604.888,-290.98 650.68,-234.07 671.693,-204.967"/>
</g>
<!-- Content&#45;&gt;Notification -->
<g id="edge78" class="edge"><title>Content&#45;&gt;Notification</title>
<path fill="none" stroke="#c7bdc1" d="M275.377,-334.252C269.367,-329.459 263.573,-323.987 259,-318 236.277,-288.252 229.06,-244.676 226.848,-216.078"/>
<ellipse fill="none" stroke="#c7bdc1" cx="278.737" cy="-336.775" rx="4.00002" ry="4.00002"/>
<polygon fill="#c7bdc1" stroke="#c7bdc1" points="226.836,-215.892 230.714,-205.635 226.53,-210.902 226.223,-205.911 226.223,-205.911 226.223,-205.911 226.53,-210.902 221.731,-206.187 226.836,-215.892 226.836,-215.892"/>
</g>
<!-- Content&#45;&gt;Trigger -->
<g id="edge84" class="edge"><title>Content&#45;&gt;Trigger</title>
<path fill="none" stroke="#f381b2" d="M295.764,-329.264C292.653,-319.539 291.608,-308.725 297,-300 306.405,-284.783 323.595,-297.217 333,-282 363.321,-232.939 350.121,-161.932 339.197,-123.054"/>
<ellipse fill="none" stroke="#f381b2" cx="297.197" cy="-333.029" rx="4.00001" ry="4.00001"/>
<polygon fill="#f381b2" stroke="#f381b2" points="339.19,-123.029 340.671,-112.164 337.773,-118.234 336.356,-113.439 336.356,-113.439 336.356,-113.439 337.773,-118.234 332.04,-114.714 339.19,-123.029 339.19,-123.029"/>
</g>
<!-- Content&#45;&gt;Feedback -->
<g id="edge88" class="edge"><title>Content&#45;&gt;Feedback</title>
<path fill="none" stroke="black" d="M359.445,-351.914C413.749,-347.608 495.518,-337.96 519,-318 585.722,-261.286 524.706,-196.441 584,-132 594.576,-120.506 609.384,-112.369 623.571,-106.711"/>
</g>
<!-- User -->
<g id="node29" class="node"><title>User</title>
<ellipse fill="none" stroke="black" cx="440" cy="-263" rx="33.9411" ry="18.3848"/>
<text text-anchor="middle" x="440" y="-259.4" font-family="Times Roman,serif" font-size="14.00">User</text>
</g>
<!-- Content&#45;&gt;User -->
<g id="edge80" class="edge"><title>Content&#45;&gt;User</title>
<path fill="none" stroke="#fcd0dc" d="M366.361,-345.426C384.688,-339.964 403.863,-331.403 418,-318 425.533,-310.858 430.546,-300.797 433.855,-291.23"/>
<polygon fill="#fcd0dc" stroke="#fcd0dc" points="366.246,-345.458 355.416,-343.739 361.421,-346.77 356.596,-348.082 356.596,-348.082 356.596,-348.082 361.421,-346.77 357.777,-352.424 366.246,-345.458 366.246,-345.458"/>
<polygon fill="#fcd0dc" stroke="#fcd0dc" points="433.873,-291.168 441.034,-282.863 435.297,-286.375 436.72,-281.582 436.72,-281.582 436.72,-281.582 435.297,-286.375 432.407,-280.301 433.873,-291.168 433.873,-291.168"/>
<text text-anchor="middle" x="472.5" y="-305.4" font-family="Times Roman,serif" font-size="14.00">notify_users</text>
</g>
<!-- Feedback&#45;&gt;Comment -->
<g id="edge62" class="edge"><title>Feedback&#45;&gt;Comment</title>
<path fill="none" stroke="black" d="M628.277,-81.5003C588.88,-67.7654 528.129,-46.5861 488.465,-32.7586"/>
</g>
<!-- Feedback&#45;&gt;Trackback -->
<g id="edge64" class="edge"><title>Feedback&#45;&gt;Trackback</title>
<path fill="none" stroke="black" d="M686.482,-77.373C700.053,-65.0951 718.076,-48.7884 731.623,-36.5314"/>
</g>
<!-- BlogSweeper -->
<g id="node28" class="node"><title>BlogSweeper</title>
<polygon fill="none" stroke="black" points="2306,-449 2200,-449 2200,-413 2306,-413 2306,-449"/>
<text text-anchor="middle" x="2253" y="-427.4" font-family="Times Roman,serif" font-size="14.00">BlogSweeper</text>
</g>
<!-- User&#45;&gt;Article -->
<g id="edge96" class="edge"><title>User&#45;&gt;Article</title>
<path fill="none" stroke="#a006f3" d="M475.775,-249.75C497.427,-241.901 525.663,-231.966 551,-224 579.46,-215.052 611.688,-206.058 637.291,-199.178"/>
<ellipse fill="none" stroke="#a006f3" cx="471.871" cy="-251.172" rx="4.00001" ry="4.00001"/>
<polygon fill="#a006f3" stroke="#a006f3" points="637.451,-199.136 648.274,-200.903 642.282,-197.846 647.113,-196.555 647.113,-196.555 647.113,-196.555 642.282,-197.846 645.952,-192.208 637.451,-199.136 637.451,-199.136"/>
</g>
<!-- User&#45;&gt;Notification -->
<g id="edge92" class="edge"><title>User&#45;&gt;Notification</title>
<path fill="none" stroke="#caaada" d="M403.403,-250.003C368.534,-237.62 315.73,-218.867 276.793,-205.039"/>
<ellipse fill="none" stroke="#caaada" cx="407.37" cy="-251.412" rx="4.00001" ry="4.00001"/>
<polygon fill="#caaada" stroke="#caaada" points="276.635,-204.983 268.718,-197.395 271.924,-203.309 267.212,-201.636 267.212,-201.636 267.212,-201.636 271.924,-203.309 265.706,-205.877 276.635,-204.983 276.635,-204.983"/>
</g>
<!-- User&#45;&gt;Content -->
<g id="edge94" class="edge"><title>User&#45;&gt;Content</title>
<path fill="none" stroke="#e000ea" d="M399.019,-273.686C360.16,-283.913 307.472,-298.066 306,-300 300.318,-307.463 299.431,-317.281 300.498,-326.555"/>
<polygon fill="#e000ea" stroke="#e000ea" points="399.386,-273.59 410.201,-275.402 404.223,-272.32 409.059,-271.05 409.059,-271.05 409.059,-271.05 404.223,-272.32 407.916,-266.698 399.386,-273.59 399.386,-273.59"/>
<polygon fill="#e000ea" stroke="#e000ea" points="300.545,-326.808 297.958,-337.464 301.464,-331.723 302.382,-336.638 302.382,-336.638 302.382,-336.638 301.464,-331.723 306.805,-335.811 300.545,-326.808 300.545,-326.808"/>
<text text-anchor="middle" x="360" y="-305.4" font-family="Times Roman,serif" font-size="14.00">notify_contents</text>
</g>
<!-- NotificationMailer -->
<g id="node30" class="node"><title>NotificationMailer</title>
<polygon fill="none" stroke="black" points="2627,-449 2491,-449 2491,-413 2627,-413 2627,-449"/>
<text text-anchor="middle" x="2559" y="-427.4" font-family="Times Roman,serif" font-size="14.00">NotificationMailer</text>
</g>
<!-- WebNotifier -->
<g id="node32" class="node"><title>WebNotifier</title>
<polygon fill="none" stroke="black" points="1610,-449 1512,-449 1512,-413 1610,-413 1610,-449"/>
<text text-anchor="middle" x="1561" y="-427.4" font-family="Times Roman,serif" font-size="14.00">WebNotifier</text>
</g>
<!-- ActiveRecord::Base -->
<g id="node33" class="node"><title>ActiveRecord::Base</title>
<ellipse fill="none" stroke="black" cx="803" cy="-535" rx="104.151" ry="18.3848"/>
<text text-anchor="middle" x="803" y="-531.4" font-family="Times Roman,serif" font-size="14.00">ActiveRecord::Base</text>
</g>
<!-- ActiveRecord::Base&#45;&gt;Redirection -->
<g id="edge2" class="edge"><title>ActiveRecord::Base&#45;&gt;Redirection</title>
<path fill="none" stroke="black" d="M768.83,-517.481C746.893,-507.076 717.465,-494.649 690,-488 594.399,-464.855 332.843,-501.436 249,-450 184.53,-410.449 149.898,-320.624 137.437,-281.636"/>
</g>
<!-- ActiveRecord::Base&#45;&gt;Category -->
<g id="edge10" class="edge"><title>ActiveRecord::Base&#45;&gt;Category</title>
<path fill="none" stroke="black" d="M864.618,-519.947C901.669,-507.54 946.295,-485.971 971,-450 1006.75,-397.95 999.311,-317.748 993.548,-281.689"/>
</g>
<!-- ActiveRecord::Base&#45;&gt;Ping -->
<g id="edge12" class="edge"><title>ActiveRecord::Base&#45;&gt;Ping</title>
<path fill="none" stroke="black" d="M871.417,-521.039C919.157,-511.421 984.386,-498.528 1042,-488 1091.88,-478.885 1234.27,-488.727 1267,-450 1365.4,-333.585 1156.79,-160.891 1089.2,-109.766"/>
</g>
<!-- ActiveRecord::Base&#45;&gt;Sidebar -->
<g id="edge14" class="edge"><title>ActiveRecord::Base&#45;&gt;Sidebar</title>
<path fill="none" stroke="black" d="M784.586,-516.407C765.49,-497.126 735.872,-467.22 717.227,-448.394"/>
</g>
<!-- ActiveRecord::Base&#45;&gt;Right -->
<g id="edge22" class="edge"><title>ActiveRecord::Base&#45;&gt;Right</title>
<path fill="none" stroke="black" d="M803,-516.407C803,-497.594 803,-468.664 803,-449.783"/>
</g>
<!-- ActiveRecord::Base&#45;&gt;Blog -->
<g id="edge48" class="edge"><title>ActiveRecord::Base&#45;&gt;Blog</title>
<path fill="none" stroke="black" d="M825.154,-516.813C841.002,-503.793 862.832,-485.839 882,-470 891.318,-462.301 901.658,-453.725 910.261,-446.58"/>
</g>
<!-- ActiveRecord::Base&#45;&gt;Notification -->
<g id="edge50" class="edge"><title>ActiveRecord::Base&#45;&gt;Notification</title>
<path fill="none" stroke="black" d="M769.401,-517.383C747.444,-506.797 717.786,-494.211 690,-488 619.031,-472.137 38,-503.721 38,-431 38,-431 38,-431 38,-263 38,-233.912 116.336,-210.709 171.875,-197.914"/>
</g>
<!-- ActiveRecord::Base&#45;&gt;Redirect -->
<g id="edge56" class="edge"><title>ActiveRecord::Base&#45;&gt;Redirect</title>
<path fill="none" stroke="black" d="M768.322,-517.294C746.434,-506.955 717.242,-494.668 690,-488 599.44,-465.835 573.123,-484.342 481,-470 435.921,-462.982 385.05,-450.922 350.4,-442.066"/>
</g>
<!-- ActiveRecord::Base&#45;&gt;TextFilter -->
<g id="edge60" class="edge"><title>ActiveRecord::Base&#45;&gt;TextFilter</title>
<path fill="none" stroke="black" d="M860.81,-519.467C901.564,-507.757 957.028,-490.278 1004,-470 1018.98,-463.534 1034.96,-454.92 1047.96,-447.433"/>
</g>
<!-- ActiveRecord::Base&#45;&gt;PostType -->
<g id="edge66" class="edge"><title>ActiveRecord::Base&#45;&gt;PostType</title>
<path fill="none" stroke="black" d="M865.525,-520.199C933.538,-503.884 1045.35,-476.434 1141,-450 1148.38,-447.961 1156.21,-445.688 1163.75,-443.443"/>
</g>
<!-- ActiveRecord::Base&#45;&gt;Profile -->
<g id="edge68" class="edge"><title>ActiveRecord::Base&#45;&gt;Profile</title>
<path fill="none" stroke="black" d="M816.507,-516.554C827.696,-500.054 842.739,-474.724 849,-450 855.565,-424.076 852.219,-392.919 848.877,-373.534"/>
</g>
<!-- ActiveRecord::Base&#45;&gt;Trigger -->
<g id="edge70" class="edge"><title>ActiveRecord::Base&#45;&gt;Trigger</title>
<path fill="none" stroke="black" d="M769.429,-517.256C747.483,-506.62 717.827,-494.025 690,-488 614.814,-471.72 0,-507.928 0,-431 0,-431 0,-431 0,-187 0,-128.416 195.419,-105.516 285.495,-98.0723"/>
</g>
<!-- ActiveRecord::Base&#45;&gt;Resource -->
<g id="edge74" class="edge"><title>ActiveRecord::Base&#45;&gt;Resource</title>
<path fill="none" stroke="black" d="M866.827,-520.391C914.778,-509.918 982.201,-496.255 1042,-488 1140.94,-474.342 1167.72,-487.806 1266,-470 1311.32,-461.789 1362,-477.053 1362,-431 1362,-431 1362,-431 1362,-187 1362,-161.604 1362,-132.265 1362,-113.678"/>
</g>
<!-- ActiveRecord::Base&#45;&gt;Tag -->
<g id="edge76" class="edge"><title>ActiveRecord::Base&#45;&gt;Tag</title>
<path fill="none" stroke="black" d="M759.83,-518.032C717.086,-500.249 656.167,-471.904 643,-450 634.299,-435.525 636.186,-427.453 643,-412 712.296,-254.837 902.246,-141.803 967.579,-106.588"/>
</g>
<!-- ActiveRecord::Base&#45;&gt;Content -->
<g id="edge86" class="edge"><title>ActiveRecord::Base&#45;&gt;Content</title>
<path fill="none" stroke="black" d="M767.407,-517.574C745.545,-507.537 716.703,-495.47 690,-488 638.91,-473.708 622.959,-484.752 572,-470 483.204,-444.294 385.002,-395.46 337.649,-370.512"/>
</g>
<!-- ActiveRecord::Base&#45;&gt;User -->
<g id="edge98" class="edge"><title>ActiveRecord::Base&#45;&gt;User</title>
<path fill="none" stroke="black" d="M765.939,-517.678C744.169,-507.988 715.919,-496.238 690,-488 655.268,-476.961 639.006,-492.065 610,-470 541.792,-418.114 581.197,-358.957 519,-300 505.261,-286.976 486.103,-277.849 470.095,-271.919"/>
</g>
<!-- ActiveRecord::Base&#45;&gt;Categorization -->
<g id="edge102" class="edge"><title>ActiveRecord::Base&#45;&gt;Categorization</title>
<path fill="none" stroke="black" d="M867.35,-520.411C915.278,-510.018 982.442,-496.446 1042,-488 1132.56,-475.158 1158.45,-492.885 1247,-470 1284.14,-460.401 1324,-469.362 1324,-431 1324,-431 1324,-431 1324,-187 1324,-148.804 1285.24,-124.307 1251.77,-110.276"/>
</g>
<!-- ActiveRecord::Observer -->
<g id="node41" class="node"><title>ActiveRecord::Observer</title>
<ellipse fill="none" stroke="black" cx="1488" cy="-535" rx="125.865" ry="18.3848"/>
<text text-anchor="middle" x="1488" y="-531.4" font-family="Times Roman,serif" font-size="14.00">ActiveRecord::Observer</text>
</g>
<!-- ActiveRecord::Observer&#45;&gt;EmailNotifier -->
<g id="edge16" class="edge"><title>ActiveRecord::Observer&#45;&gt;EmailNotifier</title>
<path fill="none" stroke="black" d="M1479.78,-516.407C1471.35,-497.36 1458.34,-467.943 1450,-449.084"/>
</g>
<!-- ActiveRecord::Observer&#45;&gt;WebNotifier -->
<g id="edge104" class="edge"><title>ActiveRecord::Observer&#45;&gt;WebNotifier</title>
<path fill="none" stroke="black" d="M1501.05,-516.407C1514.42,-497.36 1535.07,-467.943 1548.31,-449.084"/>
</g>
<!-- Object -->
<g id="node63" class="node"><title>Object</title>
<ellipse fill="none" stroke="black" cx="1722" cy="-535" rx="43.1335" ry="18.3848"/>
<text text-anchor="middle" x="1722" y="-531.4" font-family="Times Roman,serif" font-size="14.00">Object</text>
</g>
<!-- Object&#45;&gt;PageCache -->
<g id="edge58" class="edge"><title>Object&#45;&gt;PageCache</title>
<path fill="none" stroke="black" d="M1713.42,-516.407C1704.63,-497.36 1691.05,-467.943 1682.35,-449.084"/>
</g>
<!-- Object&#45;&gt;Theme -->
<g id="edge72" class="edge"><title>Object&#45;&gt;Theme</title>
<path fill="none" stroke="black" d="M1730.58,-516.407C1739.37,-497.36 1752.95,-467.943 1761.65,-449.084"/>
</g>
<!-- ActionController::Caching::Sweeper -->
<g id="node80" class="node"><title>ActionController::Caching::Sweeper</title>
<ellipse fill="none" stroke="black" cx="2253" cy="-535" rx="185.969" ry="18.3848"/>
<text text-anchor="middle" x="2253" y="-531.4" font-family="Times Roman,serif" font-size="14.00">ActionController::Caching::Sweeper</text>
</g>
<!-- ActionController::Caching::Sweeper&#45;&gt;BlogSweeper -->
<g id="edge90" class="edge"><title>ActionController::Caching::Sweeper&#45;&gt;BlogSweeper</title>
<path fill="none" stroke="black" d="M2253,-516.407C2253,-497.36 2253,-467.943 2253,-449.084"/>
</g>
<!-- ActionMailer::Base -->
<g id="node86" class="node"><title>ActionMailer::Base</title>
<ellipse fill="none" stroke="black" cx="2559" cy="-535" rx="101.823" ry="18.3848"/>
<text text-anchor="middle" x="2559" y="-531.4" font-family="Times Roman,serif" font-size="14.00">ActionMailer::Base</text>
</g>
<!-- ActionMailer::Base&#45;&gt;NotificationMailer -->
<g id="edge100" class="edge"><title>ActionMailer::Base&#45;&gt;NotificationMailer</title>
<path fill="none" stroke="black" d="M2559,-516.407C2559,-497.36 2559,-467.943 2559,-449.084"/>
</g>
</g>
</svg>
